<svg xmlns="http://www.w3.org/2000/svg" width="112" height="112" viewBox="0 0 112 112"><g><path class="close" fill="#cf4647" d="M15 12.3c0 .1 0 .2-.1.2l-2.3 2.3c-.1.2-.2.2-.3.2-.1 0-.2 0-.2-.1l-4.1-4.1-4.1 4.1c-.1.1-.1.1-.2.1s-.2 0-.2-.1l-2.3-2.3c-.2-.1-.2-.2-.2-.3 0-.1 0-.2.1-.2l4.1-4.1-4.1-4.1c-.1-.1-.1-.1-.1-.2s0-.2.1-.2l2.3-2.3c.1-.2.2-.2.3-.2.1 0 .2 0 .2.1l4.1 4.1 4.1-4.1c0-.1.1-.1.2-.1s.2 0 .2.1l2.3 2.3c.2.1.2.2.2.3 0 .1 0 .2-.1.2l-4.1 4.1 4.1 4.1c.1.1.1.1.1.2z"/><path class="check" fill="#6db228" d="M38.2 13.6c-.1.1-.1.1-.2.1s-.2 0-.2-.1l-5.7-5.7c-.1-.1-.1-.4 0-.5l2.3-2.3c.1-.1.4-.1.5 0l3.1 3.1 7.1-7.1c.1-.1.4-.1.5 0l2.3 2.3c.1.1.1.4 0 .5l-9.7 9.7z"/><path class="minus" fill="#4c4d4c" d="M64.3 10c-.2 0-.3-.1-.3-.3v-3.4c0-.2.1-.3.3-.3h15.3c.3 0 .4.1.4.3v3.3c0 .2-.1.3-.3.3h-15.4z"/><path class="plus" fill="#fdd24c" d="M102.3 16c-.2 0-.3-.1-.3-.3v-5.7h-5.7c-.2 0-.3-.1-.3-.3v-3.4c0-.2.1-.3.3-.3h5.7v-5.7c0-.2.1-.3.3-.3h3.3c.2 0 .3.1.3.3v5.7h5.7c.2 0 .3.1.3.3v3.3c0 .2-.1.3-.3.3h-5.6v5.7c0 .2-.1.3-.3.3h-3.4z"/><path class="navigateleft" fill="#4c4d4c" d="M9.8 47.9l-7.7-7.7c-.1-.1-.1-.4 0-.5l7.7-7.7c.1-.1.4-.1.5 0l2.3 2.3c.1.1.1.4 0 .5l-5.1 5.2 5.1 5.1c.1.1.1.4 0 .5l-2.3 2.3c-.1.1-.2.1-.3.1-.1 0-.2 0-.2-.1z"/><path class="navigateright" fill="#40bfbb" d="M37.9 32.1l7.7 7.7c.1.1.1.4 0 .5l-7.7 7.7c-.1.1-.4.1-.5 0l-2.3-2.3c-.1-.1-.1-.4 0-.5l5.1-5.1-5.1-5.1c-.1-.1-.1-.4 0-.5l2.3-2.3c.1-.1.1-.1.2-.1s.2-.1.3 0z"/><path fill="#4c4d4c" d="M64.1 42.8l7.7-7.7c.1-.1.4-.1.5 0l7.7 7.7c.1.1.1.4 0 .5l-2.3 2.3c-.1.1-.4.1-.5 0l-5.2-5.1-5.1 5.1c-.1.1-.4.1-.5 0l-2.3-2.3c-.1-.1-.1-.2-.1-.3s0-.2.1-.2zM111.9 37.9l-7.7 7.7c-.1.1-.4.1-.5 0l-7.7-7.7c-.1-.1-.1-.4 0-.5l2.3-2.3c.1-.1.4-.1.5 0l5.1 5.1 5.1-5.1c.1-.1.4-.1.5 0l2.3 2.3c.1.1.1.1.1.2s.1.2 0 .3zM15 74.3c.1.1.1.2.1.4-.3 1-.9 1.9-1.5 2.6-.1.1-.2.1-.4.1l-1.9-.7c-.5.4-1 .7-1.6.9l-.4 2c0 .1-.1.2-.3.3-.5.1-1 .1-1.5.1s-1-.1-1.5-.1c-.1 0-.2-.1-.3-.3l-.4-2c-.6-.2-1.1-.5-1.6-.9l-1.9.7c-.1.1-.3 0-.4-.1-.7-.8-1.2-1.7-1.5-2.6-.1-.1 0-.3.1-.4l1.5-1.3c-.1-.3-.1-.6-.1-.9s0-.6.1-.9l-1.5-1.3v-.5c.3-1 .9-1.9 1.5-2.6.1-.1.2-.1.4-.1l1.9.7c.5-.4 1-.7 1.6-.9l.4-2c0-.1.1-.2.3-.3 1-.2 2-.2 3 0 .1 0 .2.1.3.3l.4 2c.6.2 1.1.5 1.6.9l1.9-.7c.1-.1.3 0 .4.1.7.8 1.2 1.7 1.5 2.6.1.1 0 .3-.1.4l-1.5 1.3c.1.3.1.6.1.9s0 .6-.1.9l1.4 1.4zm-4.4-2.3c0-1.6-1.4-3-3-3-1.7 0-3 1.4-3 3 0 1.7 1.3 3 3 3 1.6 0 3-1.3 3-3zM47.7 72.3h-1.7v7.3c0 .2-.1.3-.3.3h-3.3c-.2 0-.3-.1-.3-.3v-5.6h-4v5.7c0 .2-.1.3-.3.3h-3.3c-.2 0-.3-.1-.3-.3v-7.3h-1.7c-.1 0-.3-.1-.3-.2s0-.3.1-.4l7.7-7.7c.1-.1.4-.1.5 0l7.7 7.7c-.2.1-.2.2-.2.3-.1.2-.2.2-.3.2zM80 79.7c0 .2-.1.3-.3.3h-15.4c-.2 0-.3-.1-.3-.3v-.7c0-3.3 6-2.7 6-5.3 0 0-2-2-2-5.7 0-2.2 1.8-4 4-4s4 1.8 4 4c0 3.7-2 5.7-2 5.7 0 2.7 6 2 6 5.3v.7zM112 79.7c0 .2-.1.3-.3.3h-15.4c-.2 0-.3-.1-.3-.3v-.7c0-3.3 6-2.7 6-5.3-2 0-3-1.3-3-1.3s1-.7 1-4.3c0-2.2 1.8-4 4-4s4 1.8 4 4c0 3.7 1 4.3 1 4.3s-1 1.3-3 1.3c0 2.7 6 2 6 5.3v.7zM10 111.7c0 .2-.1.3-.3.3h-9.4c-.2 0-.3-.1-.3-.3v-.7c0-2.3 3.3-1.7 3.3-3.7 0 0-1.3-1.5-1.3-4.3 0-1.6 1.3-3 3-3 1.6 0 3 1.4 3 3 0 2.8-1.3 4.3-1.3 4.3 0 2.1 3.3 1.4 3.3 3.7v.7zm6-4c0 .2-.1.3-.3.3h-6.4c-.8-.3-1.1-.6-1.1-.6s1.2-1.8 1.2-4.4c0-1.9-1.3-3.1-1.3-3.1-.1-.3-.1-.6-.1-.9 0-1.6 1.3-3 3-3 1.6 0 3 1.4 3 3 0 2.8-1.3 4.3-1.3 4.3 0 2.1 3.3 1.4 3.3 3.7v.7zM45.9 106.2c-.1.4-.5.8-1 .8h-8c-.5 0-.9-.3-1-.8l-1.9-8.2h-1c-.6 0-1-.4-1-1s.4-1 1-1h1.8c.5 0 .9.3 1 .8l.6 2.2h11.4l.3.1c.1.1.1.2.1.3l-2.3 6.8zm-7.6 2.5c.9 0 1.7.7 1.7 1.7 0 .9-.7 1.7-1.7 1.7s-1.7-.7-1.7-1.7c.1-1 .8-1.7 1.7-1.7zm5.4 0c.9 0 1.7.7 1.7 1.7 0 .9-.7 1.7-1.7 1.7s-1.7-.7-1.7-1.7.7-1.7 1.7-1.7zM77.7 101.3c0 .9-.3 1.9-.7 2.6l-4.4 7.9c-.1.1-.2.2-.3.2-.1 0-.2-.1-.3-.2l-4.4-7.9c-.4-.8-.7-1.7-.7-2.6 0-2.9 2.4-5.3 5.3-5.3s5.5 2.4 5.5 5.3zm-3.4 0c0-1.1-.9-2-2-2s-2 .9-2 2 .9 2 2 2 2-.9 2-2zM112 99.7c0 .2-.1.3-.3.3h-15.4c-.2 0-.3-.1-.3-.3v-3.3c0-.2.1-.3.3-.3h15.3c.2 0 .3.1.3.3v3.3zm0 6c0 .2-.1.3-.3.3h-15.4c-.2 0-.3-.1-.3-.3v-3.3c0-.2.1-.3.3-.3h15.3c.2 0 .3.1.3.3v3.3zm0 6c0 .2-.1.3-.3.3h-15.4c-.2 0-.3-.1-.3-.3v-3.3c0-.2.1-.3.3-.3h15.3c.2 0 .3.1.3.3v3.3z"/></g></svg>