<?xml version="1.0" encoding="utf-8"?>
<!-- Generator: Adobe Illustrator 17.0.0, SVG Export Plug-In . SVG Version: 6.00 Build 0)  -->
<!DOCTYPE svg PUBLIC "-//W3C//DTD SVG 1.1//EN" "http://www.w3.org/Graphics/SVG/1.1/DTD/svg11.dtd">
<svg version="1.1" id="Layer_1" xmlns="http://www.w3.org/2000/svg" xmlns:xlink="http://www.w3.org/1999/xlink" x="0px" y="0px"
	 width="16px" height="16px" viewBox="0 0 16 16" enable-background="new 0 0 16 16" xml:space="preserve">
<g>
	<path opacity="0.86" fill="#E14D31" d="M16,6c0,3.3-2.7,6-6,6c-1.2,0-2.3-0.3-3.2-0.9l-4.5,4.5C2,15.9,1.7,16,1.3,16
		c-0.4,0-0.7-0.1-0.9-0.4c-0.5-0.5-0.5-1.4,0-1.9l4.5-4.5C4.3,8.3,4,7.2,4,6c0-3.3,2.7-6,6-6C13.3,0,16,2.7,16,6z M14,6
		c0-2.2-1.8-4-4-4C7.8,2,6,3.8,6,6c0,2.2,1.8,4,4,4C12.2,10,14,8.2,14,6z"/>
</g>
</svg>
